{
	"asset":{
		"generator":"Khronos glTF Blender I/O v4.5.47",
		"version":"2.0"
	},
	"scene":0,
	"scenes":[
		{
			"name":"Scene",
			"nodes":[
				0
			]
		}
	],
	"nodes":[
		{
			"mesh":0,
			"name":"Plane"
		}
	],
	"meshes":[
		{
			"name":"Plane",
			"primitives":[
				{
					"attributes":{
						"POSITION":0,
						"NORMAL":1,
						"TEXCOORD_0":2
					},
					"indices":3
				}
			]
		}
	],
	"accessors":[
		{
			"bufferView":0,
			"componentType":5126,
			"count":1111,
			"max":[
				2.921388864517212,
				1.6624046564102173,
				2.8293726444244385
			],
			"min":[
				-2.7926435470581055,
				-0.6071733236312866,
				-2.9390926361083984
			],
			"type":"VEC3"
		},
		{
			"bufferView":1,
			"componentType":5126,
			"count":1111,
			"type":"VEC3"
		},
		{
			"bufferView":2,
			"componentType":5126,
			"count":1111,
			"type":"VEC2"
		},
		{
			"bufferView":3,
			"componentType":5123,
			"count":1161,
			"type":"SCALAR"
		}
	],
	"bufferViews":[
		{
			"buffer":0,
			"byteLength":13332,
			"byteOffset":0,
			"target":34962
		},
		{
			"buffer":0,
			"byteLength":13332,
			"byteOffset":13332,
			"target":34962
		},
		{
			"buffer":0,
			"byteLength":8888,
			"byteOffset":26664,
			"target":34962
		},
		{
			"buffer":0,
			"byteLength":2322,
			"byteOffset":35552,
			"target":34963
		}
	],
	"buffers":[
		{
			"byteLength":37876,
			"uri":"map.bin"
		}
	]
}
