{
	"asset":{
		"generator":"Khronos glTF Blender I/O v5.0.21",
		"version":"2.0"
	},
	"scene":0,
	"scenes":[
		{
			"name":"Scene",
			"nodes":[
				0
			]
		}
	],
	"nodes":[
		{
			"mesh":0,
			"name":"Plane"
		}
	],
	"meshes":[
		{
			"name":"Plane",
			"primitives":[
				{
					"attributes":{
						"POSITION":0,
						"NORMAL":1,
						"TEXCOORD_0":2
					},
					"indices":3
				}
			]
		}
	],
	"accessors":[
		{
			"bufferView":0,
			"componentType":5126,
			"count":4200,
			"max":[
				1.1763591766357422,
				0.44618165493011475,
				1.1276696920394897
			],
			"min":[
				-1.0560871362686157,
				-0.24340452253818512,
				-1.0664891004562378
			],
			"type":"VEC3"
		},
		{
			"bufferView":1,
			"componentType":5126,
			"count":4200,
			"type":"VEC3"
		},
		{
			"bufferView":2,
			"componentType":5126,
			"count":4200,
			"type":"VEC2"
		},
		{
			"bufferView":3,
			"componentType":5123,
			"count":4392,
			"type":"SCALAR"
		}
	],
	"bufferViews":[
		{
			"buffer":0,
			"byteLength":50400,
			"byteOffset":0,
			"target":34962
		},
		{
			"buffer":0,
			"byteLength":50400,
			"byteOffset":50400,
			"target":34962
		},
		{
			"buffer":0,
			"byteLength":33600,
			"byteOffset":100800,
			"target":34962
		},
		{
			"buffer":0,
			"byteLength":8784,
			"byteOffset":134400,
			"target":34963
		}
	],
	"buffers":[
		{
			"byteLength":143184,
			"uri":"newMap.bin"
		}
	]
}
